<svg xmlns:cc="http://creativecommons.org/ns#" xmlns:dc="http://purl.org/dc/elements/1.1/" xmlns:inkscape="http://www.inkscape.org/namespaces/inkscape" xmlns:rdf="http://www.w3.org/1999/02/22-rdf-syntax-ns#" xmlns:sodipodi="http://sodipodi.sourceforge.net/DTD/sodipodi-0.dtd" xmlns:svg="http://www.w3.org/2000/svg" xmlns="http://www.w3.org/2000/svg" xmlns:xlink="http://www.w3.org/1999/xlink" id="svg20" x="0px" y="0px" viewBox="0 0 300 105" style="enable-background:new 0 0 300 105;" xml:space="preserve">
<style type="text/css">
	.st0{enable-background:new    ;}
	.st1{fill:#FFFFFF;}
	.st2{display:none;}
	.st3{display:inline;fill:#FFFFFF;}
	.st4{display:inline;fill:#E7464C;}
	.st5{display:inline;fill:#FFFFFF;fill-opacity:0.9882;}
</style>
<g id="g843" transform="translate(0,97.5)">
	<g id="g832" transform="matrix(1.1253277,0,0,1.1253277,-18.775355,-61.410573)">
		<g class="st0">
			<path class="st1" d="M134.9,31.4h-3.6V-0.5h3.9v11.3c1.6-2.1,3.8-3.1,6.3-3.1c1.4,0,2.8,0.3,4,0.9c1.3,0.6,2.3,1.4,3.1,2.4     s1.5,2.3,1.9,3.7c0.5,1.5,0.7,3,0.7,4.7c0,3.9-1,7-2.9,9.2c-2,2.2-4.3,3.2-7,3.2s-4.9-1.1-6.4-3.4V31.4z M134.8,19.7     c0,2.8,0.4,4.8,1.1,6c1.2,2,2.9,3,5,3c1.7,0,3.2-0.7,4.4-2.2c1.2-1.5,1.9-3.7,1.9-6.6c0-3-0.6-5.2-1.8-6.7     c-1.2-1.4-2.6-2.1-4.3-2.1s-3.2,0.7-4.4,2.2C135.4,14.7,134.8,16.9,134.8,19.7z"></path>
			<path class="st1" d="M173.7,23.9l4,0.5c-0.6,2.4-1.8,4.2-3.5,5.5s-3.9,2-6.6,2c-3.4,0-6-1-8-3.1s-3-5-3-8.7c0-3.9,1-6.9,3-9     s4.6-3.2,7.8-3.2c3.1,0,5.6,1,7.6,3.1s2.9,5,2.9,8.9c0,0.2,0,0.6,0,1h-17.2c0.1,2.5,0.9,4.5,2.1,5.8c1.3,1.3,2.9,2,4.8,2     c1.4,0,2.7-0.4,3.7-1.1C172.3,26.8,173.1,25.6,173.7,23.9z M160.9,17.6h12.9c-0.2-1.9-0.7-3.4-1.5-4.4c-1.2-1.5-2.9-2.3-4.8-2.3     c-1.8,0-3.3,0.6-4.5,1.8C161.7,14,161,15.6,160.9,17.6z"></path>
			<path class="st1" d="M183.7,21.1l4-0.3c0.2,1.6,0.6,2.9,1.3,3.9c0.7,1,1.8,1.8,3.2,2.5s3.1,0.9,4.9,0.9c1.6,0,3-0.2,4.3-0.7     c1.2-0.5,2.1-1.1,2.7-2c0.6-0.8,0.9-1.7,0.9-2.7s-0.3-1.9-0.9-2.6c-0.6-0.7-1.5-1.4-2.9-1.9c-0.9-0.3-2.7-0.9-5.7-1.6     c-2.9-0.7-5-1.4-6.1-2c-1.5-0.8-2.7-1.8-3.4-3s-1.1-2.5-1.1-4c0-1.6,0.5-3.1,1.4-4.5s2.2-2.5,4-3.2c1.7-0.7,3.7-1.1,5.8-1.1     c2.4,0,4.4,0.4,6.2,1.1c1.8,0.8,3.2,1.9,4.2,3.4s1.5,3.1,1.6,5l-4,0.3c-0.2-2-1-3.5-2.2-4.6s-3.1-1.5-5.5-1.5     c-2.5,0-4.4,0.5-5.6,1.4C189.6,5,189,6.2,189,7.5c0,1.1,0.4,2.1,1.2,2.8s2.9,1.5,6.3,2.3c3.4,0.8,5.8,1.5,7,2     c1.9,0.9,3.2,1.9,4.1,3.2c0.9,1.3,1.3,2.8,1.3,4.5s-0.5,3.3-1.5,4.8c-1,1.5-2.4,2.7-4.2,3.5c-1.8,0.8-3.9,1.2-6.1,1.2     c-2.9,0-5.3-0.4-7.2-1.3c-1.9-0.8-3.5-2.1-4.6-3.8C184.2,25,183.8,23.3,183.7,21.1z"></path>
			<path class="st1" d="M231.3,28.5c-1.4,1.2-2.8,2.1-4.2,2.6c-1.3,0.5-2.8,0.8-4.3,0.8c-2.5,0-4.5-0.6-5.8-1.9     c-1.4-1.2-2-2.8-2-4.7c0-1.1,0.3-2.2,0.8-3.1s1.2-1.7,2-2.2c0.8-0.6,1.8-1,2.8-1.3c0.8-0.2,1.9-0.4,3.5-0.6     c3.2-0.4,5.5-0.8,7-1.3c0-0.5,0-0.9,0-1c0-1.6-0.4-2.7-1.1-3.4c-1-0.9-2.5-1.3-4.4-1.3c-1.8,0-3.2,0.3-4.1,1     c-0.9,0.6-1.5,1.8-1.9,3.4l-3.8-0.5c0.3-1.6,0.9-3,1.7-4s1.9-1.8,3.5-2.3c1.5-0.5,3.2-0.8,5.2-0.8s3.6,0.2,4.8,0.7     c1.2,0.5,2.1,1,2.7,1.7c0.6,0.7,1,1.6,1.2,2.7c0.1,0.7,0.2,1.9,0.2,3.6v5.2c0,3.6,0.1,5.9,0.2,6.9c0.2,1,0.5,1.9,1,2.8h-4.1     C231.7,30.5,231.5,29.6,231.3,28.5z M231,19.8c-1.4,0.6-3.5,1.1-6.4,1.5c-1.6,0.2-2.7,0.5-3.4,0.8s-1.2,0.7-1.5,1.3     c-0.4,0.6-0.5,1.2-0.5,1.9c0,1,0.4,1.9,1.2,2.6s1.9,1,3.5,1c1.5,0,2.8-0.3,4-1s2-1.6,2.6-2.7c0.4-0.9,0.6-2.2,0.6-3.9v-1.5     C231.1,19.8,231,19.8,231,19.8z"></path>
			<path class="st1" d="M244,31.4v-20h-3.5v-3h3.5V5.9c0-1.5,0.1-2.7,0.4-3.4c0.4-1,1-1.8,2-2.5c0.9-0.6,2.3-0.9,4-0.9     c1.1,0,2.3,0.1,3.6,0.4l-0.6,3.4c-0.8-0.1-1.6-0.2-2.3-0.2c-1.2,0-2,0.3-2.5,0.8s-0.7,1.5-0.7,2.8v2.1h4.5v3h-4.5v20H244z"></path>
			<path class="st1" d="M273.1,23.9l4,0.5c-0.6,2.4-1.8,4.2-3.5,5.5c-1.7,1.3-3.9,2-6.6,2c-3.4,0-6-1-8-3.1s-3-5-3-8.7     c0-3.9,1-6.9,3-9s4.6-3.2,7.8-3.2c3.1,0,5.6,1,7.6,3.1s2.9,5,2.9,8.9c0,0.2,0,0.6,0,1h-17.2c0.1,2.5,0.9,4.5,2.1,5.8     c1.3,1.3,2.9,2,4.8,2c1.4,0,2.7-0.4,3.7-1.1C271.7,26.8,272.6,25.6,273.1,23.9z M260.3,17.6h12.9c-0.2-1.9-0.7-3.4-1.5-4.4     c-1.2-1.5-2.9-2.3-4.8-2.3c-1.8,0-3.3,0.6-4.5,1.8C261.1,14,260.5,15.6,260.3,17.6z"></path>
		</g>
		<g id="g835" transform="matrix(0.90072747,0,0,0.90072747,-70.515529,62.735854)" class="st2">
			<path id="path1047-0-20-5-6-1-5" inkscape:connector-curvature="0" class="st3" d="M96.8-91.8c15.5-16.4,43.4-16.6,60.3,0.3     l-9.5,9.9c-11.8-12.3-30.7-12.6-41.7-0.4L96.8-91.8L96.8-91.8z"></path>
			<path id="path1189-7-0-1-5-8" inkscape:connector-curvature="0" class="st4" d="M128.8-24c-19.5-19.6-21.3-21.5-22.6-24.4     c-2-4.7-2.6-9.8-2-14.8c0.1-1,0.4-1.9,0.9-2.7L150-22l15.6-15.6c8.6-8.6,15.2-15.4,16.1-17c1.2-2.1,0.7-5.5-0.1-7.4     c-1.5-3.5-6.4-6.2-9.8-5.5c-3,0.7-4.6,1.9-13.3,10.5l-8.7,8.7l-9.6-9.6l8.1-8.2c12.1-12.2,15.4-14.3,23.4-14.8     c9-0.7,17.5,4.1,21.6,12.1c3.5,6.5,3.6,14.4,0.1,20.9c-1.6,3.2-3.6,5.3-22.6,24.3L150-2.8L128.8-24z"></path>
			<path id="path1183-2-4-9-5-9" inkscape:connector-curvature="0" class="st5" d="M121.9-48.3h-8.4v-9.6h8.4v-7.6h9.9v7.6h8.4v9.6     h-8.4v8.4h-9.9V-48.3z"></path>
			<path id="path1049-6-4-2-74-8-0" inkscape:connector-curvature="0" class="st4" d="M110.5-77.2c9.3-9.5,22.7-9.1,32.5-0.3     c0,0,0.2,0.2,0.4,0.4l-8,8.5l-0.2-0.1c-5.8-5.2-12.4-4.1-17,0.1L110.5-77.2z"></path>
		</g>
	</g>
</g>
</svg>